<svg width="40" height="40" viewBox="0 0 40 40" fill="none" xmlns="http://www.w3.org/2000/svg">
<g clip-path="url(#clip0_216_1852)">
<path d="M5 35H35" stroke="black" stroke-width="2" stroke-linecap="round" stroke-linejoin="round"/>
<path d="M8.33325 35V8.33333C8.33325 7.44928 8.68444 6.60143 9.30956 5.97631C9.93468 5.35119 10.7825 5 11.6666 5H28.3333C29.2173 5 30.0652 5.35119 30.6903 5.97631C31.3154 6.60143 31.6666 7.44928 31.6666 8.33333V35" stroke="black" stroke-width="2" stroke-linecap="round" stroke-linejoin="round"/>
<path d="M15 35V28.3333C15 27.4493 15.3512 26.6014 15.9763 25.9763C16.6014 25.3512 17.4493 25 18.3333 25H21.6667C22.5507 25 23.3986 25.3512 24.0237 25.9763C24.6488 26.6014 25 27.4493 25 28.3333V35" stroke="black" stroke-width="2" stroke-linecap="round" stroke-linejoin="round"/>
<path d="M16.6667 15H23.3334" stroke="black" stroke-width="2" stroke-linecap="round" stroke-linejoin="round"/>
<path d="M20 11.6667V18.3334" stroke="black" stroke-width="2" stroke-linecap="round" stroke-linejoin="round"/>
</g>
<defs>
<clipPath id="clip0_216_1852">
<rect width="40" height="40" fill="white"/>
</clipPath>
</defs>
</svg>
